<svg width="84" height="51" viewBox="0 0 84 51" fill="none" xmlns="http://www.w3.org/2000/svg">
<path d="M3.038 20.3621H2.22852C0.997617 20.3621 0 21.36 0 22.5906C0 23.8212 0.997617 24.8191 2.22852 24.8191H3.038C4.26828 24.8191 5.26657 23.8212 5.26657 22.5906C5.26657 21.36 4.26859 20.3621 3.038 20.3621Z" fill="#111111"/>
<path d="M21.5708 24.8191C22.8014 24.8191 23.7997 23.8212 23.7997 22.5906C23.7997 21.36 22.8014 20.3621 21.5708 20.3621H9.20332C7.97305 20.3621 6.97479 21.36 6.97479 22.5906C6.97479 23.8212 7.97305 24.8191 9.20332 24.8191H21.5708Z" fill="#111111"/>
<path d="M10.578 16.5465H11.3782C12.6095 16.5465 13.6068 15.5486 13.6068 14.3183C13.6068 13.0871 12.6095 12.0895 11.3782 12.0895H10.578C9.34704 12.0895 8.34943 13.0874 8.34943 14.3183C8.34943 15.5486 9.34704 16.5465 10.578 16.5465Z" fill="#111111"/>
<path d="M24.0083 12.0895H17.5442C16.313 12.0895 15.3153 13.0874 15.3153 14.3183C15.3153 15.5489 16.313 16.5465 17.5442 16.5465H24.0083C25.2392 16.5465 26.2368 15.5486 26.2368 14.3183C26.2368 13.0871 25.2392 12.0895 24.0083 12.0895Z" fill="#111111"/>
<path d="M11.3881 28.6357H10.578C9.34704 28.6357 8.34943 29.6337 8.34943 30.8646C8.34943 32.0952 9.34704 33.0928 10.578 33.0928H11.3881C12.619 33.0928 13.6166 32.0949 13.6166 30.8646C13.6166 29.6337 12.619 28.6357 11.3881 28.6357Z" fill="#111111"/>
<path d="M24.0082 28.6357H17.5537C16.3228 28.6357 15.3251 29.6337 15.3251 30.8646C15.3251 32.0952 16.3228 33.0928 17.5537 33.0928H24.0082C25.2391 33.0928 26.2368 32.0949 26.2368 30.8646C26.2368 29.6337 25.2391 28.6357 24.0082 28.6357Z" fill="#111111"/>
<path d="M83.337 24.5136L72.6408 12.8147C72.2191 12.3526 71.6216 12.0895 70.9958 12.0895H58.3498V2.61916C58.3498 1.38825 57.3522 0.390625 56.1213 0.390625H15.5084C14.2775 0.390625 13.2798 1.38857 13.2798 2.61916C13.2798 3.84975 14.2775 4.84769 15.5084 4.84769H53.8924V40.3352H34.6721C33.7095 37.1014 30.7115 34.7362 27.1697 34.7362C23.628 34.7362 20.6294 37.1014 19.6677 40.3352H15.5084C14.2775 40.3352 13.2798 41.3328 13.2798 42.5634C13.2798 43.7946 14.2775 44.792 15.5084 44.792H19.6677C20.6294 48.0251 23.628 50.3906 27.1697 50.3906C30.7115 50.3906 33.7095 48.0251 34.6721 44.792H56.121H61.4037C62.3664 48.0251 65.365 50.3906 68.9062 50.3906C72.4486 50.3906 75.4465 48.0251 76.4089 44.792H81.692C82.9229 44.792 83.9205 43.7943 83.9205 42.5634V26.0172C83.9211 25.4613 83.7123 24.9245 83.337 24.5136ZM27.1697 45.9342C25.3115 45.9342 23.7996 44.4223 23.7996 42.5637C23.7996 40.7054 25.3115 39.1933 27.1697 39.1933C29.028 39.1933 30.5399 40.7058 30.5399 42.5637C30.5402 44.4223 29.028 45.9342 27.1697 45.9342ZM68.9065 45.9342C67.0482 45.9342 65.5363 44.4223 65.5363 42.5637C65.5363 40.7054 67.0485 39.1933 68.9065 39.1933C70.7654 39.1933 72.2772 40.7058 72.2772 42.5637C72.2776 44.4223 70.7654 45.9342 68.9065 45.9342ZM76.4095 40.3355C75.4471 37.1017 72.4492 34.7365 68.9068 34.7365C65.3653 34.7365 62.3671 37.1017 61.4044 40.3355H58.3501V16.5469H70.0144L76.6355 23.789H64.0121C62.7818 23.789 61.7842 24.7869 61.7842 26.0175C61.7842 27.2487 62.7818 28.2461 64.0121 28.2461H79.4641V40.3352H76.4095V40.3355Z" fill="#111111"/>
</svg>
