<svg width="60" height="50" viewBox="0 0 60 50" fill="none" xmlns="http://www.w3.org/2000/svg">
<path d="M17.2232 32.6246H27.4129C28.2922 32.6246 29.0049 31.9119 29.0049 31.0331C29.0049 30.1538 28.292 29.4406 27.4129 29.4406H21.0662L27.0218 23.4854C28.3004 22.2067 29.0049 20.5067 29.0049 18.6981C29.0049 16.8898 28.3004 15.1898 27.0218 13.9111C25.7433 12.6323 24.0431 11.9282 22.2348 11.9282C20.4262 11.9282 18.7262 12.6325 17.4478 13.9111C16.8259 14.5325 16.8259 15.5408 17.4478 16.1626C18.0696 16.784 19.0774 16.784 19.6993 16.1622C20.3763 15.4849 21.2771 15.1121 22.2348 15.1121C23.1926 15.1121 24.0933 15.4849 24.7705 16.1626C25.448 16.8394 25.8208 17.74 25.8208 18.6981C25.8208 19.656 25.448 20.5566 24.7705 21.2339L16.0971 29.9074C15.6417 30.3624 15.5057 31.0474 15.7518 31.6424C15.9986 32.237 16.5791 32.6246 17.2232 32.6246Z" fill="#111111"/>
<path d="M42.725 29.4413H41.3722V26.2436C41.3722 25.3647 40.6595 24.6516 39.7802 24.6516C38.9009 24.6516 38.1885 25.3647 38.1885 26.2436V29.4413H34.3761L41.2325 14.1727C41.5926 13.3708 41.2343 12.4284 40.4322 12.0683C39.6301 11.7082 38.6879 12.0663 38.3279 12.8682L30.4637 30.3812C30.2425 30.8737 30.2859 31.4449 30.5792 31.8985C30.8728 32.3517 31.3757 32.625 31.9158 32.625H38.1882V35.8232C38.1882 36.7021 38.9007 37.4154 39.78 37.4154C40.6595 37.4154 41.3719 36.7021 41.3719 35.8232V32.625H42.7248C43.6041 32.625 44.317 31.9124 44.317 31.0335C44.3172 30.1542 43.6041 29.4413 42.725 29.4413Z" fill="#333333"/>
<path d="M59.7352 23.8765C59.451 23.384 58.9252 23.0803 58.3567 23.0803H54.5936C54.2145 17.0898 51.7021 11.5095 47.4194 7.22723C42.7595 2.56738 36.564 0.0012207 29.9742 0.0012207C29.0949 0.0012207 28.3822 0.713875 28.3822 1.59295C28.3822 2.47247 29.0951 3.18489 29.9742 3.18489C41.287 3.18489 50.5854 11.9727 51.4027 23.0805H47.7509C47.1819 23.0805 46.6566 23.3843 46.3723 23.8767C46.0876 24.3694 46.0876 24.9762 46.3723 25.4689L51.6749 34.6537C51.9596 35.1464 52.485 35.4495 53.0534 35.4495C53.6224 35.4495 54.148 35.1464 54.4322 34.6537L59.735 25.4689C60.0193 24.976 60.0193 24.3691 59.7352 23.8765ZM53.0534 30.6732L50.5082 26.2642H55.5994L53.0534 30.6732Z" fill="#111111"/>
<path d="M25.007 3.18437C25.4257 3.18437 25.8364 3.01366 26.1327 2.71739C26.4287 2.42134 26.5992 2.01062 26.5992 1.5922C26.5992 1.17241 26.429 0.762617 26.1327 0.466565C25.8366 0.169379 25.4257 0 25.007 0C24.5875 0 24.1777 0.169379 23.881 0.466565C23.5849 0.762617 23.4151 1.17332 23.4151 1.5922C23.4151 2.01062 23.5849 2.42134 23.881 2.71739C24.1777 3.01366 24.5875 3.18437 25.007 3.18437Z" fill="#111111"/>
<path d="M20.2312 3.18437C20.6497 3.18437 21.0606 3.01366 21.3566 2.71739C21.6538 2.42134 21.8232 2.01062 21.8232 1.5922C21.8232 1.17241 21.6538 0.762617 21.3566 0.466565C21.0606 0.169379 20.6497 0 20.2312 0C19.8126 0 19.4019 0.169379 19.1056 0.466565C18.8084 0.762617 18.639 1.17241 18.639 1.5922C18.639 2.01062 18.8084 2.42134 19.1056 2.71739C19.4016 3.01366 19.8126 3.18437 20.2312 3.18437Z" fill="#111111"/>
<path d="M29.9745 46.1589C24.2347 46.1589 18.839 43.9238 14.7803 39.8656C11.0994 36.1847 8.91854 31.4031 8.54485 26.2633H12.1976C12.198 26.2633 12.1985 26.2633 12.199 26.2633C13.0783 26.2633 13.7909 25.5507 13.7909 24.6714C13.7909 24.3563 13.6992 24.062 13.5409 23.815L8.2731 14.6908C7.98908 14.1983 7.46326 13.895 6.89455 13.895C6.32583 13.895 5.80024 14.1983 5.516 14.6908L0.213184 23.8756C-0.0710614 24.3683 -0.0710614 24.9751 0.213184 25.4678C0.49743 25.9605 1.02302 26.2636 1.59173 26.2636H5.35458C5.73417 32.2547 8.2463 37.8343 12.5288 42.1168C17.1887 46.7771 23.3842 49.3431 29.9743 49.3431C30.8536 49.3431 31.566 48.6304 31.566 47.7509C31.5662 46.872 30.8538 46.1589 29.9745 46.1589ZM6.89477 18.6707L9.44027 23.0794H4.34928L6.89477 18.6707Z" fill="#111111"/>
<path d="M34.9416 46.1584C34.5229 46.1584 34.1122 46.3292 33.8159 46.6248C33.5199 46.921 33.3496 47.3317 33.3496 47.7504C33.3496 48.17 33.5199 48.58 33.8159 48.8762C34.112 49.173 34.5229 49.3426 34.9416 49.3426C35.3611 49.3426 35.7709 49.173 36.0679 48.8762C36.3639 48.58 36.5333 48.1695 36.5333 47.7504C36.5333 47.3317 36.3639 46.921 36.0679 46.6248C35.7709 46.3292 35.3611 46.1584 34.9416 46.1584Z" fill="#111111"/>
<path d="M39.7175 46.1584C39.2979 46.1584 38.8879 46.3292 38.5918 46.6248C38.2949 46.921 38.1255 47.3317 38.1255 47.7504C38.1255 48.1695 38.2951 48.58 38.5918 48.8762C38.8879 49.173 39.2979 49.3426 39.7175 49.3426C40.1361 49.3426 40.547 49.173 40.8429 48.8762C41.1389 48.58 41.3096 48.1695 41.3096 47.7504C41.3096 47.3317 41.1391 46.921 40.8429 46.6248C40.547 46.3292 40.1359 46.1584 39.7175 46.1584Z" fill="#111111"/>
</svg>
